<svg xmlns="http://www.w3.org/2000/svg" viewBox="0 0 512 512"><g data-name="4 Rabbit"><path fill="#f7f5fb" d="M225.9243,195.424a113.7758,113.7758,0,0,0-57.79,37.02l-53.34,63.64c-5.77-28.61-9.1-62.42-9.1-98.64,0-102.97,26.92-186.44,60.12-186.44C198.8042,11.004,225.5844,93.384,225.9243,195.424Z"/><path fill="#fcd8d8" d="M184.3144,197.444c0,6.56-.1,13.03-.3,19.37a115.9149,115.9149,0,0,0-15.88,15.63l-53.61,63.96c-5.52-26.98-8.83-61.42-8.83-98.96,0-86.52,17.6-156.65,39.31-156.65S184.3144,110.924,184.3144,197.444Z"/><path fill="#f7f5fb" d="M406.3042,197.444c0,36.22-3.33,70.03-9.1,98.64l-53.34-63.64a113.7731,113.7731,0,0,0-57.79-37.02c.34-102.04,27.12-184.42,60.11-184.42C379.3842,11.004,406.3042,94.474,406.3042,197.444Z"/><path fill="#fcd8d8" d="M406.3042,197.444c0,37.54-3.31,71.98-8.83,98.96l-53.61-63.96a115.8754,115.8754,0,0,0-15.88-15.63c-.2-6.34-.3-12.81-.3-19.37,0-86.52,17.6-156.65,39.31-156.65S406.3042,110.924,406.3042,197.444Z"/><path fill="#f7f5fb" d="M168.1375,232.4425l-67.2814,80.2753C38.3235,387.3272,91.3693,501,188.7186,501H323.2814c97.3493,0,150.3951-113.6728,87.8625-188.2822l-67.2814-80.2753C298.0431,177.7741,213.9569,177.7741,168.1375,232.4425Z"/><path fill="#fcd8d8" d="M242.5648,441.54,227.818,425.9615c-11.1632-11.7926-2.8032-31.2179,13.4351-31.2179h29.4938c16.2383,0,24.5983,19.4253,13.4351,31.2179L269.4352,441.54A18.5,18.5,0,0,1,242.5648,441.54Z"/><path fill="#e4e3e8" d="M245.9243,501.004h-57.21c-97.35,0-150.39-113.68-87.86-188.29l.93-1.11A501.4443,501.4443,0,0,0,245.9243,501.004Z"/><path fill="#606060" d="M187.2747,357.5656a6,6,0,0,1-6-6V337.1725a6,6,0,0,1,12,0v14.3931A6,6,0,0,1,187.2747,357.5656Z"/><path fill="#606060" d="M324.7253,357.5656a6,6,0,0,1-6-6V337.1725a6,6,0,0,1,12,0v14.3931A6,6,0,0,1,324.7253,357.5656Z"/></g></svg>